<svg width="14" height="14" viewBox="0 0 14 14" fill="none" xmlns="http://www.w3.org/2000/svg">
<path d="M1.78125 0.21875C1.65625 0.0625 1.40625 0.0625 1.25 0.21875L0.625 0.8125C0.5 0.96875 0.5 1.21875 0.625 1.34375L6.28125 7L0.625 12.6875C0.5 12.8125 0.5 13.0625 0.625 13.2188L1.25 13.8125C1.40625 13.9688 1.65625 13.9688 1.78125 13.8125L8.34375 7.28125C8.46875 7.125 8.46875 6.90625 8.34375 6.75L1.78125 0.21875ZM6.25 0.21875L5.625 0.8125C5.5 0.96875 5.5 1.21875 5.625 1.34375L11.2812 7L5.625 12.6875C5.5 12.8125 5.5 13.0625 5.625 13.2188L6.25 13.8125C6.40625 13.9688 6.65625 13.9688 6.78125 13.8125L13.3438 7.28125C13.4688 7.125 13.4688 6.90625 13.3438 6.75L6.78125 0.21875C6.65625 0.0625 6.40625 0.0625 6.25 0.21875Z" fill="#EBEDEF"/>
</svg>
