<svg width="14" height="14" viewBox="0 0 14 14" fill="none" xmlns="http://www.w3.org/2000/svg">
<path d="M12.1875 13.8125C12.3438 13.9688 12.5625 13.9688 12.7188 13.8125L13.3438 13.2188C13.4688 13.0625 13.4688 12.8125 13.3438 12.6875L7.6875 7L13.3438 1.34375C13.4688 1.21875 13.4688 0.96875 13.3438 0.8125L12.7188 0.21875C12.5625 0.0625 12.3438 0.0625 12.1875 0.21875L5.625 6.75C5.5 6.90625 5.5 7.125 5.625 7.28125L12.1875 13.8125ZM7.71875 13.8125L8.34375 13.2188C8.46875 13.0625 8.46875 12.8125 8.34375 12.6875L2.6875 7L8.34375 1.34375C8.46875 1.21875 8.46875 0.96875 8.34375 0.8125L7.71875 0.21875C7.5625 0.0625 7.34375 0.0625 7.1875 0.21875L0.625 6.75C0.5 6.90625 0.5 7.125 0.625 7.28125L7.1875 13.8125C7.34375 13.9688 7.5625 13.9688 7.71875 13.8125Z" fill="#EBEDEF"/>
</svg>
