<svg width="15" height="15" viewBox="0 0 15 15" fill="none" xmlns="http://www.w3.org/2000/svg">
<path d="M7.5 0.109375C3.48633 0.109375 0.234375 3.36133 0.234375 7.375C0.234375 11.3887 3.48633 14.6406 7.5 14.6406C11.5137 14.6406 14.7656 11.3887 14.7656 7.375C14.7656 3.36133 11.5137 0.109375 7.5 0.109375ZM9.16992 10.3926L6.5625 8.48828C6.47461 8.42969 6.44531 8.3418 6.44531 8.22461V3.27344C6.44531 3.09766 6.5918 2.92188 6.79688 2.92188H8.20312C8.37891 2.92188 8.55469 3.09766 8.55469 3.27344V7.31641L10.4004 8.66406C10.5469 8.78125 10.6055 9.01562 10.4883 9.16211L9.63867 10.3047C9.55078 10.4512 9.31641 10.4805 9.16992 10.3926Z" fill="#465069"/>
</svg>
