<svg width="17" height="15" viewBox="0 0 17 15" fill="none" xmlns="http://www.w3.org/2000/svg">
<path d="M3.1875 2.3125C3.1875 1.44922 2.45703 0.71875 1.59375 0.71875C0.697266 0.71875 0 1.44922 0 2.3125C0 3.20898 0.697266 3.90625 1.59375 3.90625C2.45703 3.90625 3.1875 3.20898 3.1875 2.3125ZM1.59375 6.03125C0.697266 6.03125 0 6.76172 0 7.625C0 8.52148 0.697266 9.21875 1.59375 9.21875C2.45703 9.21875 3.1875 8.52148 3.1875 7.625C3.1875 6.76172 2.45703 6.03125 1.59375 6.03125ZM1.59375 11.3438C0.697266 11.3438 0 12.0742 0 12.9375C0 13.834 0.697266 14.5312 1.59375 14.5312C2.45703 14.5312 3.1875 13.834 3.1875 12.9375C3.1875 12.0742 2.45703 11.3438 1.59375 11.3438ZM17 2.84375V1.78125C17 1.58203 16.8008 1.38281 16.6016 1.38281H4.64844C4.41602 1.38281 4.25 1.58203 4.25 1.78125V2.84375C4.25 3.07617 4.41602 3.24219 4.64844 3.24219H16.6016C16.8008 3.24219 17 3.07617 17 2.84375ZM17 8.15625V7.09375C17 6.89453 16.8008 6.69531 16.6016 6.69531H4.64844C4.41602 6.69531 4.25 6.89453 4.25 7.09375V8.15625C4.25 8.38867 4.41602 8.55469 4.64844 8.55469H16.6016C16.8008 8.55469 17 8.38867 17 8.15625ZM17 13.4688V12.4062C17 12.207 16.8008 12.0078 16.6016 12.0078H4.64844C4.41602 12.0078 4.25 12.207 4.25 12.4062V13.4688C4.25 13.7012 4.41602 13.8672 4.64844 13.8672H16.6016C16.8008 13.8672 17 13.7012 17 13.4688Z" fill="#465069"/>
</svg>
