<svg width="17" height="16" viewBox="0 0 17 16" fill="none" xmlns="http://www.w3.org/2000/svg">
<path d="M8.4375 0.875C6.38672 0.875 4.74609 2.54492 4.74609 4.56641C4.74609 6.23633 7.14844 9.22461 8.05664 10.3379C8.26172 10.543 8.58398 10.543 8.78906 10.3379C9.69727 9.22461 12.1289 6.23633 12.1289 4.56641C12.1289 2.54492 10.459 0.875 8.4375 0.875ZM8.4375 5.79688C7.73438 5.79688 7.20703 5.26953 7.20703 4.56641C7.20703 3.89258 7.73438 3.33594 8.4375 3.33594C9.11133 3.33594 9.66797 3.89258 9.66797 4.56641C9.66797 5.26953 9.11133 5.79688 8.4375 5.79688ZM0.585938 7.20312C0.263672 7.34961 0 7.73047 0 8.08203V15.4062C0 15.7578 0.322266 15.9922 0.615234 15.8457L4.6875 14V7.17383C4.42383 6.70508 4.18945 6.26562 4.04297 5.82617L0.585938 7.20312ZM8.4375 11.4219C7.99805 11.4219 7.61719 11.2461 7.35352 10.9238C6.76758 10.25 6.15234 9.48828 5.625 8.66797V14L11.25 15.875V8.66797C10.6934 9.48828 10.0781 10.25 9.49219 10.9238C9.22852 11.2461 8.84766 11.4219 8.4375 11.4219ZM16.2305 5.62109L12.1875 7.4375V15.875L16.2598 14.2637C16.582 14.1172 16.875 13.7363 16.875 13.3848V6.06055C16.875 5.70898 16.5234 5.47461 16.2305 5.62109Z" fill="#465069"/>
</svg>
