<svg width="14" height="16" viewBox="0 0 14 16" fill="none" xmlns="http://www.w3.org/2000/svg">
<path d="M6.5625 8.375C8.61328 8.375 10.3125 6.70508 10.3125 4.625C10.3125 2.57422 8.61328 0.875 6.5625 0.875C4.48242 0.875 2.8125 2.57422 2.8125 4.625C2.8125 6.70508 4.48242 8.375 6.5625 8.375ZM9.3457 9.3418L7.96875 14.9375L7.03125 10.9531L7.96875 9.3125H5.15625L6.09375 10.9531L5.15625 14.9375L3.75 9.3418C1.64062 9.42969 0 11.1582 0 13.2676V14.4688C0 15.2598 0.615234 15.875 1.40625 15.875H11.7188C12.4805 15.875 13.125 15.2598 13.125 14.4688V13.2676C13.125 11.1582 11.4551 9.42969 9.3457 9.3418Z" fill="#465069"/>
</svg>
